<svg data-v-423bf9ae="" xmlns="http://www.w3.org/2000/svg" viewBox="0 0 375.58678522965954 200" class="iconAboveSlogan"><!----><!----><!----><g data-v-423bf9ae="" id="8f188360-a249-4190-8127-6b689fb44de3" fill="black" transform="matrix(6.018054576957888,0,0,6.018054576957888,-3.129391082851896,101.12974555985903)"><path d="M0.52 12.39C0.52 12.63 0.53 12.68 0.73 12.68C0.91 12.68 1.29 12.64 1.90 12.64C2.53 12.64 3.09 12.68 3.42 12.68C3.58 12.68 3.58 12.61 3.58 12.40C3.58 12.24 3.58 12.18 3.42 12.18L2.21 12.18C2.17 12.18 2.16 11.54 2.16 10.79C2.16 9.46 2.17 7.48 2.17 5.99C2.17 5.25 2.17 4.84 2.18 4.28C2.18 4.02 2.25 4.14 2.38 4.28L9.27 12.66C9.35 12.75 9.44 12.89 9.55 12.89C9.66 12.89 9.73 12.77 9.73 12.54C9.73 12.39 9.90 6.65 9.91 4.48C9.91 4.06 9.94 3.70 9.97 3.70L10.60 3.70C10.82 3.70 10.88 3.68 10.88 3.49C10.88 3.25 10.88 3.19 10.68 3.19C10.49 3.19 10.05 3.23 9.49 3.23C8.88 3.23 8.08 3.19 7.98 3.19C7.81 3.19 7.81 3.26 7.81 3.47C7.81 3.64 7.81 3.70 7.98 3.70L9.28 3.70C9.30 3.70 9.30 4.33 9.30 4.44C9.30 5.85 9.32 8.33 9.32 9.70L9.32 10.29C9.32 10.57 9.31 10.65 9.09 10.37L3.40 3.39C3.29 3.25 3.26 3.19 3.09 3.19C3.01 3.19 2.63 3.23 2.32 3.23C2.03 3.23 0.95 3.19 0.76 3.19C0.59 3.19 0.56 3.26 0.56 3.47C0.56 3.64 0.59 3.70 0.76 3.70L1.67 3.70C1.67 4.17 1.62 8.53 1.55 10.79C1.53 11.69 1.54 12.18 1.43 12.18L0.78 12.18C0.56 12.18 0.52 12.19 0.52 12.39ZM11.77 10.04C11.77 11.58 12.94 12.85 14.46 12.85C16.23 12.85 17.26 11.58 17.26 9.84C17.26 8.29 16.24 7.01 14.69 7.01C12.94 7.01 11.77 8.37 11.77 10.04ZM12.85 10.23C12.85 8.69 13.24 7.46 14.52 7.46C15.65 7.46 16.17 8.74 16.17 9.74C16.17 10.92 15.93 12.40 14.46 12.40C13.41 12.40 12.85 11.27 12.85 10.23ZM17.67 7.45C17.67 7.59 17.68 7.67 17.85 7.67L18.10 7.67C18.23 7.67 18.21 7.69 18.28 7.85C18.84 9.31 19.66 11.56 19.81 12.04C19.89 12.31 20.03 12.99 20.27 12.99C20.33 12.99 20.40 12.95 20.45 12.88C20.82 12.33 20.93 12.36 21.15 11.89C21.78 10.57 22.61 8.37 22.92 7.81C22.99 7.70 22.99 7.67 23.07 7.67L23.34 7.67C23.48 7.67 23.51 7.59 23.51 7.45C23.51 7.29 23.49 7.21 23.35 7.21C23.14 7.21 22.90 7.24 22.60 7.24C22.32 7.24 21.87 7.21 21.76 7.21C21.56 7.21 21.56 7.31 21.56 7.45C21.56 7.59 21.56 7.67 21.74 7.67L22.15 7.67C22.20 7.67 22.25 7.71 22.25 7.85C22.25 8.29 21.27 10.64 20.93 11.44C20.89 11.55 20.86 11.59 20.83 11.59C20.80 11.59 20.78 11.52 20.72 11.41C20.31 10.50 19.43 7.88 19.40 7.74C19.40 7.70 19.46 7.67 19.61 7.67L20.10 7.67C20.23 7.67 20.24 7.59 20.24 7.45C20.24 7.29 20.24 7.21 20.09 7.21C19.84 7.21 19.18 7.24 18.83 7.24C18.42 7.24 18.12 7.21 17.85 7.21C17.68 7.21 17.67 7.32 17.67 7.45ZM23.79 10.01C23.79 11.68 24.75 12.85 26.52 12.85C27.97 12.85 28.97 11.56 28.97 11.48C28.97 11.45 28.73 11.24 28.69 11.24C28.60 11.24 28.01 12.15 26.84 12.15C25.83 12.15 24.84 11.33 24.84 9.88C24.84 9.72 24.85 9.49 24.88 9.42C25.09 9.42 27.85 9.49 28 9.49C28.14 9.49 28.80 9.46 28.80 9.28C28.80 8.09 28.08 7.01 26.67 7.01C24.96 7.01 23.79 8.33 23.79 10.01ZM24.91 9.03C24.96 8.34 25.61 7.41 26.50 7.41C26.94 7.41 27.75 7.70 27.75 8.99C27.75 9.04 27.58 9.03 27.23 9.04C26.53 9.07 25.10 9.10 25.03 9.10C24.92 9.10 24.91 9.09 24.91 9.03ZM29.48 3.58C29.48 3.65 29.50 3.65 29.55 3.65C29.61 3.65 30.20 3.60 30.28 3.60C30.35 3.60 30.41 3.57 30.44 3.82C30.55 5.07 30.59 10.37 30.59 11.06C30.59 11.44 30.59 12.21 30.52 12.21L29.81 12.21C29.65 12.21 29.64 12.29 29.64 12.43C29.64 12.59 29.65 12.67 29.82 12.67C30.24 12.67 30.81 12.64 31.16 12.64C31.57 12.64 32.06 12.67 32.33 12.67C32.49 12.67 32.49 12.60 32.49 12.43C32.49 12.28 32.49 12.21 32.33 12.21L31.72 12.21C31.67 12.21 31.65 12.05 31.65 11.70C31.65 8.89 31.58 7.62 31.57 3.32C31.57 3.16 31.57 3.07 31.43 3.07C31.35 3.07 30.25 3.15 29.69 3.19C29.58 3.21 29.55 3.19 29.53 3.32C29.50 3.42 29.48 3.57 29.48 3.58ZM33.38 12.39C33.38 12.63 33.39 12.68 33.59 12.68C33.77 12.68 34.15 12.64 34.76 12.64C35.39 12.64 35.95 12.68 36.27 12.68C36.44 12.68 36.44 12.61 36.44 12.40C36.44 12.24 36.44 12.18 36.27 12.18L35.07 12.18C35.03 12.18 35.01 11.54 35.01 10.79C35.01 9.46 35.03 7.48 35.03 5.99C35.03 5.25 35.03 4.84 35.04 4.28C35.04 4.02 35.11 4.14 35.24 4.28L42.13 12.66C42.21 12.75 42.29 12.89 42.41 12.89C42.52 12.89 42.59 12.77 42.59 12.54C42.59 12.39 42.76 6.65 42.77 4.48C42.77 4.06 42.80 3.70 42.83 3.70L43.46 3.70C43.68 3.70 43.74 3.68 43.74 3.49C43.74 3.25 43.74 3.19 43.54 3.19C43.34 3.19 42.91 3.23 42.35 3.23C41.73 3.23 40.94 3.19 40.84 3.19C40.67 3.19 40.67 3.26 40.67 3.47C40.67 3.64 40.67 3.70 40.84 3.70L42.14 3.70C42.15 3.70 42.15 4.33 42.15 4.44C42.15 5.85 42.18 8.33 42.18 9.70L42.18 10.29C42.18 10.57 42.17 10.65 41.94 10.37L36.26 3.39C36.15 3.25 36.12 3.19 35.95 3.19C35.87 3.19 35.49 3.23 35.18 3.23C34.89 3.23 33.81 3.19 33.61 3.19C33.45 3.19 33.42 3.26 33.42 3.47C33.42 3.64 33.45 3.70 33.61 3.70L34.52 3.70C34.52 4.17 34.48 8.53 34.41 10.79C34.38 11.69 34.40 12.18 34.29 12.18L33.64 12.18C33.42 12.18 33.38 12.19 33.38 12.39ZM44.63 10.04C44.63 11.58 45.79 12.85 47.32 12.85C49.08 12.85 50.12 11.58 50.12 9.84C50.12 8.29 49.10 7.01 47.54 7.01C45.79 7.01 44.63 8.37 44.63 10.04ZM45.71 10.23C45.71 8.69 46.10 7.46 47.38 7.46C48.51 7.46 49.03 8.74 49.03 9.74C49.03 10.92 48.79 12.40 47.32 12.40C46.27 12.40 45.71 11.27 45.71 10.23ZM50.88 10.04C50.88 11.58 52.04 12.85 53.56 12.85C55.33 12.85 56.36 11.58 56.36 9.84C56.36 8.29 55.34 7.01 53.79 7.01C52.04 7.01 50.88 8.37 50.88 10.04ZM51.95 10.23C51.95 8.69 52.35 7.46 53.62 7.46C54.75 7.46 55.27 8.74 55.27 9.74C55.27 10.92 55.03 12.40 53.56 12.40C52.51 12.40 51.95 11.27 51.95 10.23ZM56.83 3.51C56.83 3.64 56.84 3.65 56.98 3.65C57.11 3.65 57.74 3.61 57.78 3.61C57.88 3.61 57.89 6.80 57.89 9.30L57.89 12.00C57.89 12.21 57.89 12.21 57.78 12.21L57.16 12.21C56.99 12.21 56.99 12.29 56.99 12.43C56.99 12.59 56.99 12.67 57.18 12.67C57.33 12.67 57.89 12.64 58.35 12.64C58.76 12.64 59.08 12.67 59.35 12.67C59.51 12.67 59.53 12.57 59.53 12.47C59.53 12.29 59.53 12.21 59.35 12.21L58.90 12.21C58.87 12.21 58.87 11.77 58.87 11.30L58.87 10.12C58.87 9.95 58.90 9.94 58.98 9.94L59.15 9.94C59.28 9.94 59.29 9.95 59.46 10.16L61.00 12.07C61.07 12.17 61.10 12.21 60.96 12.21L60.77 12.21C60.61 12.21 60.59 12.29 60.59 12.43C60.59 12.59 60.59 12.67 60.77 12.67C60.97 12.67 61.42 12.64 61.77 12.64C62.12 12.64 62.54 12.67 62.73 12.67C62.93 12.67 62.93 12.59 62.93 12.43C62.93 12.26 62.93 12.21 62.73 12.21L62.57 12.21C62.45 12.21 62.43 12.21 62.29 12.04L60.17 9.59C60.06 9.45 60.03 9.48 60.17 9.31C60.47 8.96 61.56 7.60 61.68 7.60L62.13 7.60C62.30 7.60 62.31 7.52 62.31 7.38C62.31 7.21 62.27 7.14 62.15 7.14C61.94 7.14 61.64 7.17 61.28 7.17C60.91 7.17 60.55 7.14 60.41 7.14C60.23 7.14 60.21 7.24 60.21 7.38C60.21 7.52 60.21 7.60 60.40 7.60L60.73 7.60C60.87 7.60 60.93 7.62 60.83 7.76C60.51 8.29 60.13 8.82 59.74 9.34C59.64 9.48 59.54 9.63 59.36 9.63L59.05 9.63C58.88 9.63 58.87 9.62 58.87 9.49L59.02 3.25C59.02 3.08 59.04 3.02 58.91 3.02C58.83 3.02 57.53 3.12 56.99 3.16C56.84 3.18 56.83 3.25 56.83 3.36Z"></path></g><!----><g data-v-423bf9ae="" id="2636773b-0a90-4090-8092-2ee4434074c7" transform="matrix(1.0868111504448785,0,0,1.0868111504448785,132.74473429518693,-0.23894260335429607)" stroke="none" fill="black"><g clip-rule="evenodd"><path d="M12.983 10.59l17.018 88.223-5.872-59.049 29.021-1.892-.054-9.883L64.549 1 53.622 18.977z"></path><path d="M59.389 54.548l5.16-53.541-8.74 39.716-19.612 1.045 1.57 20.462-7.766 36.583 12.057-39.899z"></path><path d="M62.8 67.182l.549-10.453-15.979 3.755-.032 11.797-17.337 26.532 21.68-27.616zM65.711 62.394l14.841-4.731 1.509-12.532-15.899 2.095zM72.07 44.502l10.988-1.417 1.581-10.278-8.079-.373L64.549 1l8.43 30.967z"></path><path d="M87.413 31.294l1.256-9.506-9.544-2.694L64.549 1l14.483 22.437-.422 7z"></path></g></g><!----><g data-v-423bf9ae="" id="00727735-f7ef-4866-996a-345cb6c2f779" fill="black" transform="matrix(0.7249963523117503,0,0,0.7249963523117503,47.960716244962725,218.74079997846147)"><path d="M6.58 10.35L6.58 10.35Q7.63 9.20 8.46 7.91Q9.30 6.62 10.01 5.01L10.01 5.01Q10.37 5.05 10.71 5.21Q11.05 5.36 11.24 5.56L11.24 5.56Q10.47 6.48 9.85 7.24Q9.23 7.99 8.71 8.66Q8.19 9.32 7.75 9.93Q7.31 10.54 6.89 11.16L6.89 11.16Q6.68 11.87 6.50 12.60Q6.31 13.33 6.17 13.99Q6.03 14.66 5.96 15.22Q5.88 15.79 5.88 16.20L5.88 16.20Q5.73 16.20 5.39 16.14Q5.05 16.07 4.70 15.99Q4.35 15.90 4.07 15.82Q3.78 15.74 3.72 15.68L3.72 15.68Q3.95 15.30 4.17 14.75Q4.38 14.20 4.59 13.59Q4.80 12.98 5.00 12.36Q5.19 11.73 5.36 11.20L5.36 11.20Q5.01 10.11 4.68 9.15Q4.35 8.19 4.05 7.41Q3.74 6.64 3.46 6.08Q3.18 5.52 2.93 5.22L2.93 5.22Q3.07 5.17 3.35 5.11Q3.64 5.05 3.98 5.00Q4.33 4.94 4.68 4.91Q5.04 4.87 5.32 4.86L5.32 4.86Q5.32 5.21 5.38 5.71Q5.45 6.22 5.55 6.79Q5.66 7.36 5.80 7.95Q5.94 8.54 6.08 9.03Q6.22 9.52 6.35 9.88Q6.48 10.23 6.58 10.35ZM23.23 4.98L23.23 4.98Q23.49 5.10 23.77 5.27Q24.05 5.45 24.29 5.63Q24.53 5.81 24.69 5.98Q24.85 6.16 24.86 6.27L24.86 6.27Q24.63 6.22 24.39 6.20Q24.15 6.17 23.95 6.17L23.95 6.17Q23.32 6.17 22.70 6.48Q22.08 6.79 21.52 7.32Q20.96 7.85 20.48 8.57Q20.01 9.28 19.66 10.09Q19.32 10.91 19.12 11.77Q18.93 12.64 18.93 13.48L18.93 13.48Q18.93 14.57 19.29 15.11Q19.66 15.64 20.36 15.64L20.36 15.64Q20.69 15.64 21.08 15.51Q21.48 15.37 21.88 15.13Q22.29 14.90 22.68 14.56Q23.07 14.22 23.41 13.82L23.41 13.82Q23.90 13.23 24.29 12.48Q24.68 11.73 24.95 10.89Q25.23 10.05 25.38 9.16Q25.52 8.27 25.52 7.42L25.52 7.42Q25.52 7.08 25.51 6.85Q25.49 6.62 25.47 6.46Q25.45 6.30 25.44 6.20Q25.42 6.10 25.41 6.03L25.41 6.03Q25.58 6.12 25.78 6.24Q25.98 6.36 26.16 6.59Q26.33 6.82 26.45 7.20Q26.57 7.57 26.57 8.18L26.57 8.18Q26.57 9.16 26.34 10.10Q26.11 11.05 25.70 11.90Q25.28 12.75 24.72 13.50Q24.16 14.24 23.52 14.80L23.52 14.80Q22.68 15.54 21.73 15.95Q20.78 16.35 19.89 16.35L19.89 16.35Q18.61 16.35 17.93 15.53Q17.25 14.71 17.25 13.12L17.25 13.12Q17.25 12.26 17.44 11.31Q17.63 10.36 17.97 9.44Q18.31 8.51 18.79 7.68Q19.26 6.85 19.83 6.21Q20.40 5.57 21.05 5.19Q21.70 4.82 22.39 4.82L22.39 4.82Q22.61 4.82 22.81 4.85Q23.00 4.89 23.23 4.98ZM39.27 5.75L39.27 5.75Q38.65 6.58 38.15 7.57Q37.65 8.57 37.29 9.61Q36.93 10.65 36.74 11.67Q36.55 12.68 36.55 13.57L36.55 13.57Q36.55 14.66 36.88 15.15Q37.20 15.64 37.98 15.64L37.98 15.64Q38.89 15.64 39.58 15.00Q40.26 14.36 40.87 13.24L40.87 13.24Q41.26 12.52 41.54 11.65Q41.82 10.78 41.99 9.86Q42.17 8.95 42.25 8.02Q42.34 7.08 42.34 6.23L42.34 6.23Q42.34 5.68 42.32 5.43Q42.31 5.18 42.28 5.03L42.28 5.03Q42.32 5.03 42.49 5.05Q42.66 5.08 42.88 5.12Q43.09 5.17 43.31 5.24Q43.53 5.31 43.68 5.39L43.68 5.39Q43.61 6.45 43.42 7.59Q43.23 8.72 42.92 9.83Q42.62 10.93 42.21 11.96Q41.80 12.98 41.30 13.79L41.30 13.79Q40.56 14.99 39.63 15.67Q38.71 16.35 37.45 16.35L37.45 16.35Q36.16 16.35 35.45 15.60Q34.73 14.85 34.73 13.33L34.73 13.33Q34.73 12.45 34.93 11.33Q35.13 10.22 35.46 9.07Q35.78 7.91 36.22 6.81Q36.65 5.71 37.13 4.84L37.13 4.84Q37.37 4.86 37.69 4.94Q38.01 5.03 38.32 5.16Q38.63 5.29 38.89 5.45Q39.14 5.61 39.27 5.75ZM60.17 7.46L60.17 7.46Q60.17 8.13 59.87 8.73Q59.57 9.32 59.04 9.79Q58.51 10.26 57.79 10.58Q57.08 10.91 56.24 11.02L56.24 11.02Q56.45 11.65 56.75 12.31Q57.05 12.98 57.40 13.59Q57.75 14.21 58.13 14.73Q58.51 15.25 58.87 15.58L58.87 15.58Q58.80 15.72 58.67 15.86Q58.53 16.00 58.36 16.12Q58.18 16.24 58.00 16.32Q57.81 16.39 57.64 16.39L57.64 16.39Q57.33 16.39 57.05 16.10Q56.77 15.81 56.48 15.17Q56.20 14.53 55.88 13.52Q55.57 12.50 55.19 11.07L55.19 11.07Q55.03 11.07 54.88 11.07Q54.73 11.07 54.64 11.05L54.64 11.05Q54.54 10.99 54.43 10.85L54.43 10.85Q54.05 11.66 53.76 12.38Q53.47 13.09 53.24 13.76Q53.00 14.42 52.83 15.04Q52.65 15.67 52.53 16.31L52.53 16.31Q52.05 16.20 51.70 15.90Q51.35 15.61 51.04 15.08L51.04 15.08Q51.10 14.95 51.16 14.83Q51.23 14.71 51.32 14.50Q51.42 14.28 51.57 13.94Q51.72 13.61 51.96 13.05Q52.21 12.49 52.55 11.68Q52.89 10.86 53.38 9.70L53.38 9.70Q53.61 9.18 53.77 8.79Q53.93 8.40 54.05 8.04Q54.18 7.69 54.29 7.33Q54.39 6.97 54.50 6.51L54.50 6.51Q53.86 6.73 53.31 7.01Q52.75 7.28 52.39 7.59L52.39 7.59Q52.26 7.50 52.13 7.34Q52.00 7.17 51.88 6.96Q51.77 6.76 51.69 6.55Q51.60 6.34 51.59 6.17L51.59 6.17Q52.01 5.89 52.62 5.66Q53.23 5.42 53.91 5.24Q54.60 5.07 55.31 4.97Q56.03 4.87 56.64 4.87L56.64 4.87Q58.32 4.87 59.25 5.56Q60.17 6.26 60.17 7.46ZM56.59 6.02L56.76 6.29Q56.66 6.41 56.45 6.79Q56.24 7.17 55.97 7.69Q55.69 8.22 55.39 8.83Q55.09 9.45 54.81 10.05L54.81 10.05Q55.86 10.05 56.74 9.86Q57.62 9.66 58.27 9.30Q58.91 8.95 59.27 8.46Q59.63 7.98 59.63 7.39L59.63 7.39Q59.63 6.69 59.12 6.32Q58.62 5.95 57.57 5.95L57.57 5.95Q57.33 5.95 57.09 5.97Q56.85 5.99 56.59 6.02L56.59 6.02ZM78.08 14.38L78.08 14.38Q78.08 13.87 78.24 13.07Q78.40 12.26 78.66 11.33Q78.92 10.40 79.25 9.43Q79.59 8.46 79.94 7.60Q80.29 6.75 80.63 6.10Q80.96 5.46 81.23 5.18L81.23 5.18Q81.37 5.19 81.60 5.29Q81.83 5.38 82.07 5.50Q82.31 5.63 82.50 5.78Q82.70 5.92 82.75 6.05L82.75 6.05Q82.35 6.41 81.95 7.15Q81.55 7.88 81.18 8.82Q80.81 9.76 80.49 10.80Q80.16 11.84 79.93 12.82Q79.69 13.80 79.56 14.64Q79.42 15.48 79.42 16.00L79.42 16.00Q79.42 16.24 79.46 16.30L79.46 16.30Q79.16 16.28 79.02 16.19Q78.88 16.10 78.80 16.00Q78.72 15.89 78.66 15.79Q78.60 15.68 78.47 15.62L78.47 15.62Q78.37 15.58 78.30 15.43Q78.23 15.27 78.18 15.09Q78.13 14.90 78.11 14.70Q78.08 14.50 78.08 14.38ZM90.31 16.24L90.31 16.24Q89.52 16.00 89.24 15.79Q88.96 15.57 88.96 15.19L88.96 15.19Q88.96 14.77 89.15 14.01Q89.35 13.24 89.66 12.31Q89.98 11.37 90.38 10.35Q90.79 9.32 91.21 8.39Q91.63 7.45 92.03 6.67Q92.43 5.89 92.74 5.46L92.74 5.46L92.64 4.87Q92.83 4.87 93.18 4.97Q93.53 5.07 93.89 5.21Q94.25 5.35 94.52 5.49Q94.79 5.64 94.82 5.74L94.82 5.74Q94.75 6.08 94.71 6.76Q94.67 7.43 94.67 8.20L94.67 8.20Q94.67 9.73 94.79 11.19Q94.91 12.66 95.34 14.17L95.34 14.17Q95.56 13.05 95.82 11.94Q96.08 10.82 96.36 9.81Q96.64 8.79 96.92 7.92Q97.20 7.06 97.46 6.40Q97.72 5.75 97.94 5.38Q98.17 5.01 98.35 4.98L98.35 4.98Q98.50 5.01 98.69 5.10Q98.87 5.19 99.04 5.32Q99.20 5.45 99.34 5.60Q99.48 5.75 99.57 5.91L99.57 5.91Q99.12 6.09 98.68 6.76Q98.24 7.43 97.84 8.39Q97.44 9.35 97.10 10.47Q96.75 11.59 96.49 12.68Q96.24 13.76 96.09 14.69Q95.94 15.61 95.93 16.17L95.93 16.17Q95.93 16.20 95.94 16.21L95.94 16.21Q95.90 16.23 95.85 16.23Q95.80 16.23 95.76 16.23L95.76 16.23Q95.12 16.23 94.62 16.07Q94.12 15.90 93.97 15.61L93.97 15.61Q93.67 14.43 93.48 13.34Q93.28 12.25 93.15 11.16Q93.02 10.07 92.94 8.95Q92.86 7.84 92.82 6.62L92.82 6.62Q92.55 7.04 92.26 7.72Q91.97 8.40 91.69 9.21Q91.41 10.02 91.15 10.92Q90.89 11.82 90.69 12.67Q90.50 13.52 90.38 14.29Q90.27 15.05 90.27 15.61L90.27 15.61Q90.27 15.90 90.28 16.03Q90.29 16.16 90.31 16.24ZM108.40 6.69L108.40 6.69Q107.84 6.69 107.54 6.38Q107.24 6.06 107.24 5.61L107.24 5.61Q107.24 5.50 107.27 5.35Q107.31 5.19 107.37 5.08L107.37 5.08Q107.55 5.17 107.91 5.20Q108.26 5.24 108.74 5.24L108.74 5.24Q109.45 5.24 110.35 5.17Q111.26 5.11 112.08 5.04Q112.91 4.97 113.54 4.91Q114.17 4.84 114.35 4.84L114.35 4.84Q114.87 4.84 115.10 5.23Q115.33 5.61 115.44 6.26L115.44 6.26Q115.08 6.23 114.72 6.21Q114.37 6.19 114.11 6.19L114.11 6.19Q113.67 6.19 113.21 6.22Q112.76 6.24 112.29 6.30L112.29 6.30Q112.10 6.71 111.86 7.26Q111.62 7.81 111.39 8.41Q111.16 9.02 110.95 9.61Q110.74 10.21 110.59 10.68L110.59 10.68Q110.28 11.61 110.05 12.39Q109.82 13.17 109.64 13.85Q109.47 14.53 109.34 15.15Q109.21 15.76 109.12 16.35L109.12 16.35Q108.18 16.21 107.55 15.18L107.55 15.18Q107.66 14.74 107.82 14.23Q107.98 13.72 108.20 13.07Q108.42 12.42 108.71 11.59Q109.00 10.77 109.38 9.72L109.38 9.72Q109.52 9.32 109.68 8.90Q109.83 8.47 109.98 8.05Q110.12 7.63 110.24 7.24Q110.36 6.85 110.45 6.52L110.45 6.52Q109.86 6.59 109.33 6.64Q108.81 6.69 108.40 6.69ZM126.64 9.21L126.64 9.21Q127.11 9.21 127.36 9.46Q127.62 9.72 127.62 10.16L127.62 10.16Q127.62 10.28 127.60 10.39Q127.58 10.51 127.55 10.60L127.55 10.60Q127.37 10.57 127.15 10.55Q126.92 10.53 126.62 10.53L126.62 10.53Q126.01 10.53 125.40 10.63Q124.78 10.74 124.22 10.81L124.22 10.81Q123.90 11.55 123.63 12.24Q123.37 12.94 123.18 13.51Q122.99 14.08 122.88 14.50Q122.78 14.92 122.77 15.13L122.77 15.13Q123.90 14.90 125.05 14.73Q126.21 14.56 127.48 14.48L127.48 14.48Q127.64 14.71 127.74 14.99Q127.85 15.27 127.85 15.60L127.85 15.60Q127.85 15.68 127.85 15.78Q127.85 15.88 127.82 15.97L127.82 15.97Q127.43 15.96 126.99 15.95Q126.56 15.95 125.86 15.95L125.86 15.95Q125.40 15.95 124.98 15.97Q124.57 15.99 124.15 16.03Q123.73 16.07 123.26 16.14Q122.79 16.21 122.21 16.31L122.21 16.31Q121.56 16.06 120.96 15.08L120.96 15.08Q121.20 14.57 121.63 13.54Q122.05 12.52 122.71 10.79L122.71 10.79Q122.08 10.60 121.88 10.09L121.88 10.09Q121.95 10.02 122.29 9.92Q122.63 9.81 123.12 9.70L123.12 9.70Q123.33 9.16 123.47 8.75Q123.62 8.34 123.73 7.99Q123.84 7.63 123.93 7.29Q124.03 6.94 124.11 6.54L124.11 6.54Q123.62 6.51 123.34 6.27Q123.06 6.02 123.06 5.63L123.06 5.63Q123.06 5.52 123.09 5.36Q123.13 5.21 123.17 5.10L123.17 5.10Q123.45 5.14 123.71 5.15Q123.97 5.17 124.39 5.17L124.39 5.17Q125.27 5.17 126.04 5.12Q126.81 5.07 127.43 5.01Q128.06 4.96 128.51 4.91Q128.95 4.86 129.19 4.86L129.19 4.86Q129.51 4.86 129.77 5.19Q130.02 5.53 130.14 6.15L130.14 6.15Q129.71 6.10 129.44 6.09Q129.16 6.08 128.95 6.08L128.95 6.08Q128.18 6.08 127.55 6.15Q126.91 6.23 126.32 6.31L126.32 6.31Q126.24 6.44 126.13 6.64Q126.03 6.83 125.86 7.18Q125.69 7.53 125.45 8.06Q125.20 8.60 124.85 9.39L124.85 9.39Q125.38 9.31 125.85 9.26Q126.32 9.21 126.64 9.21ZM145.91 7.46L145.91 7.46Q145.91 8.13 145.61 8.73Q145.31 9.32 144.77 9.79Q144.24 10.26 143.53 10.58Q142.81 10.91 141.97 11.02L141.97 11.02Q142.18 11.65 142.48 12.31Q142.79 12.98 143.14 13.59Q143.49 14.21 143.86 14.73Q144.24 15.25 144.61 15.58L144.61 15.58Q144.54 15.72 144.40 15.86Q144.27 16.00 144.09 16.12Q143.92 16.24 143.73 16.32Q143.54 16.39 143.37 16.39L143.37 16.39Q143.07 16.39 142.79 16.10Q142.51 15.81 142.22 15.17Q141.93 14.53 141.62 13.52Q141.30 12.50 140.92 11.07L140.92 11.07Q140.77 11.07 140.62 11.07Q140.46 11.07 140.38 11.05L140.38 11.05Q140.28 10.99 140.17 10.85L140.17 10.85Q139.79 11.66 139.50 12.38Q139.20 13.09 138.97 13.76Q138.74 14.42 138.56 15.04Q138.39 15.67 138.26 16.31L138.26 16.31Q137.79 16.20 137.44 15.90Q137.09 15.61 136.78 15.08L136.78 15.08Q136.84 14.95 136.90 14.83Q136.96 14.71 137.06 14.50Q137.16 14.28 137.30 13.94Q137.45 13.61 137.70 13.05Q137.94 12.49 138.28 11.68Q138.63 10.86 139.12 9.70L139.12 9.70Q139.34 9.18 139.50 8.79Q139.66 8.40 139.79 8.04Q139.92 7.69 140.02 7.33Q140.13 6.97 140.24 6.51L140.24 6.51Q139.59 6.73 139.04 7.01Q138.49 7.28 138.12 7.59L138.12 7.59Q138.00 7.50 137.86 7.34Q137.73 7.17 137.62 6.96Q137.51 6.76 137.42 6.55Q137.34 6.34 137.33 6.17L137.33 6.17Q137.75 5.89 138.35 5.66Q138.96 5.42 139.65 5.24Q140.34 5.07 141.05 4.97Q141.76 4.87 142.38 4.87L142.38 4.87Q144.06 4.87 144.98 5.56Q145.91 6.26 145.91 7.46ZM142.32 6.02L142.49 6.29Q142.39 6.41 142.18 6.79Q141.97 7.17 141.70 7.69Q141.43 8.22 141.13 8.83Q140.83 9.45 140.55 10.05L140.55 10.05Q141.60 10.05 142.48 9.86Q143.36 9.66 144.00 9.30Q144.65 8.95 145.00 8.46Q145.36 7.98 145.36 7.39L145.36 7.39Q145.36 6.69 144.86 6.32Q144.35 5.95 143.30 5.95L143.30 5.95Q143.07 5.95 142.83 5.97Q142.59 5.99 142.32 6.02L142.32 6.02ZM153.69 16.24L153.69 16.24Q153.02 16.04 152.76 15.85Q152.50 15.65 152.50 15.36L152.50 15.36Q152.50 15.13 152.63 14.73Q152.75 14.32 153.00 13.77Q153.24 13.22 153.59 12.54Q153.93 11.87 154.36 11.10L154.36 11.10Q154 11.09 153.71 11.08Q153.43 11.07 153.24 11.07L153.24 11.07Q153.33 10.86 153.72 10.71Q154.11 10.56 154.76 10.44L154.76 10.44Q155.30 9.53 155.92 8.71Q156.55 7.88 157.18 7.19Q157.81 6.50 158.44 5.97Q159.07 5.45 159.64 5.14L159.64 5.14Q159.66 5.04 159.66 4.97Q159.67 4.90 159.67 4.87L159.67 4.87Q159.87 4.87 160.19 4.97Q160.52 5.07 160.84 5.21Q161.15 5.35 161.40 5.49Q161.64 5.64 161.67 5.74L161.67 5.74Q161.21 6.55 160.76 8.17Q160.31 9.79 160.02 12.04L160.02 12.04Q159.95 12.60 159.90 13.31Q159.85 14.03 159.85 14.91L159.85 14.91Q159.85 15.22 159.85 15.54Q159.85 15.86 159.88 16.21L159.88 16.21Q159.85 16.23 159.82 16.23Q159.80 16.23 159.71 16.23L159.71 16.23Q159.52 16.23 159.26 16.16Q159.00 16.10 158.75 16.01Q158.51 15.92 158.33 15.81Q158.16 15.69 158.12 15.61L158.12 15.61Q158.10 15.43 158.10 15.25Q158.10 15.08 158.10 14.88L158.10 14.88Q158.10 14.01 158.16 13.12Q158.23 12.22 158.38 11.27L158.38 11.27Q158.19 11.26 157.86 11.23Q157.54 11.21 157.14 11.20Q156.74 11.19 156.29 11.16Q155.83 11.14 155.40 11.13L155.40 11.13Q155.06 11.76 154.77 12.38Q154.48 13.01 154.27 13.64L154.27 13.64Q154.03 14.31 153.88 14.98Q153.73 15.65 153.69 16.24ZM159.10 7.83L159.10 7.83Q159.15 7.63 159.23 7.29Q159.31 6.94 159.38 6.57L159.38 6.57Q159.03 6.69 158.60 7.03Q158.17 7.36 157.72 7.86Q157.26 8.36 156.79 8.98Q156.32 9.60 155.89 10.30L155.89 10.30Q157.07 10.21 158.56 10.18L158.56 10.18Q158.68 9.59 158.81 9.01Q158.94 8.43 159.10 7.83ZM169.41 12.43L169.41 12.43Q169.41 11.45 169.64 10.51Q169.88 9.56 170.30 8.71Q170.72 7.87 171.30 7.16Q171.88 6.45 172.57 5.94Q173.26 5.42 174.05 5.13Q174.83 4.84 175.66 4.84L175.66 4.84Q176.62 4.84 177.16 5.25Q177.70 5.66 177.70 6.38L177.70 6.38Q177.70 6.66 177.63 6.96Q177.55 7.25 177.40 7.54Q177.25 7.83 177.06 8.09Q176.86 8.36 176.62 8.55L176.62 8.55Q176.26 8.50 175.99 8.22Q175.73 7.95 175.66 7.59L175.66 7.59Q176.15 7.18 176.44 6.74Q176.72 6.30 176.72 5.94L176.72 5.94Q176.72 5.32 175.95 5.32L175.95 5.32Q175.63 5.32 175.29 5.45Q174.94 5.59 174.59 5.82Q174.24 6.06 173.91 6.40Q173.59 6.73 173.31 7.14L173.31 7.14Q171.36 9.94 171.36 12.87L171.36 12.87Q171.36 13.90 171.68 14.53Q172.00 15.16 172.54 15.27L172.54 15.27Q173.14 15.13 174.06 14.50Q174.99 13.87 176.08 12.87L176.08 12.87Q176.22 13.01 176.25 13.16L176.25 13.16Q175.84 13.69 175.41 14.18Q174.97 14.67 174.54 15.08Q174.12 15.48 173.70 15.79Q173.29 16.10 172.94 16.27L172.94 16.27Q171.21 16.24 170.31 15.27Q169.41 14.31 169.41 12.43ZM186.90 6.69L186.90 6.69Q186.34 6.69 186.04 6.38Q185.74 6.06 185.74 5.61L185.74 5.61Q185.74 5.50 185.77 5.35Q185.81 5.19 185.86 5.08L185.86 5.08Q186.05 5.17 186.40 5.20Q186.76 5.24 187.24 5.24L187.24 5.24Q187.95 5.24 188.85 5.17Q189.76 5.11 190.58 5.04Q191.41 4.97 192.04 4.91Q192.67 4.84 192.85 4.84L192.85 4.84Q193.37 4.84 193.60 5.23Q193.83 5.61 193.94 6.26L193.94 6.26Q193.58 6.23 193.22 6.21Q192.86 6.19 192.61 6.19L192.61 6.19Q192.16 6.19 191.71 6.22Q191.25 6.24 190.79 6.30L190.79 6.30Q190.60 6.71 190.36 7.26Q190.12 7.81 189.89 8.41Q189.66 9.02 189.45 9.61Q189.24 10.21 189.08 10.68L189.08 10.68Q188.78 11.61 188.54 12.39Q188.31 13.17 188.14 13.85Q187.96 14.53 187.84 15.15Q187.71 15.76 187.61 16.35L187.61 16.35Q186.68 16.21 186.05 15.18L186.05 15.18Q186.16 14.74 186.32 14.23Q186.48 13.72 186.70 13.07Q186.91 12.42 187.21 11.59Q187.50 10.77 187.88 9.72L187.88 9.72Q188.02 9.32 188.17 8.90Q188.33 8.47 188.47 8.05Q188.62 7.63 188.74 7.24Q188.86 6.85 188.94 6.52L188.94 6.52Q188.36 6.59 187.83 6.64Q187.31 6.69 186.90 6.69ZM199.78 14.38L199.78 14.38Q199.78 13.87 199.94 13.07Q200.10 12.26 200.36 11.33Q200.62 10.40 200.96 9.43Q201.29 8.46 201.64 7.60Q201.99 6.75 202.33 6.10Q202.66 5.46 202.93 5.18L202.93 5.18Q203.07 5.19 203.30 5.29Q203.53 5.38 203.77 5.50Q204.01 5.63 204.20 5.78Q204.40 5.92 204.46 6.05L204.46 6.05Q204.05 6.41 203.65 7.15Q203.25 7.88 202.88 8.82Q202.51 9.76 202.19 10.80Q201.87 11.84 201.63 12.82Q201.39 13.80 201.26 14.64Q201.12 15.48 201.12 16.00L201.12 16.00Q201.12 16.24 201.17 16.30L201.17 16.30Q200.86 16.28 200.72 16.19Q200.58 16.10 200.50 16.00Q200.42 15.89 200.36 15.79Q200.30 15.68 200.17 15.62L200.17 15.62Q200.07 15.58 200.00 15.43Q199.93 15.27 199.88 15.09Q199.84 14.90 199.81 14.70Q199.78 14.50 199.78 14.38ZM215.22 16.07L215.22 16.07Q214.90 16.24 214.54 16.24L214.54 16.24Q214.09 16.18 213.67 16.02Q213.26 15.85 213.07 15.61L213.07 15.61Q212.95 14.92 212.88 14.35Q212.81 13.78 212.77 13.27Q212.73 12.75 212.72 12.29Q212.70 11.82 212.70 11.34L212.70 11.34Q212.70 10.71 212.72 10.01Q212.73 9.31 212.75 8.52Q212.77 7.73 212.79 6.82Q212.80 5.92 212.80 4.86L212.80 4.86Q212.98 4.86 213.35 4.96Q213.71 5.07 214.07 5.21Q214.42 5.35 214.70 5.49Q214.98 5.64 215.01 5.74L215.01 5.74Q214.87 6.13 214.77 6.76Q214.66 7.39 214.60 8.16Q214.54 8.93 214.51 9.79Q214.48 10.64 214.48 11.48L214.48 11.48Q214.48 12.11 214.49 12.61Q214.51 13.10 214.53 13.50Q214.55 13.90 214.59 14.25Q214.63 14.59 214.69 14.92L214.69 14.92Q215.08 13.73 215.55 12.54Q216.02 11.35 216.52 10.25Q217.01 9.16 217.50 8.20Q217.99 7.25 218.43 6.54Q218.88 5.84 219.23 5.43Q219.58 5.01 219.80 4.98L219.80 4.98Q219.95 5.01 220.13 5.10Q220.30 5.19 220.46 5.32Q220.61 5.45 220.74 5.60Q220.86 5.75 220.93 5.91L220.93 5.91Q220.42 6.09 219.82 6.76Q219.23 7.43 218.62 8.38Q218.02 9.32 217.45 10.44Q216.89 11.55 216.43 12.61Q215.98 13.68 215.66 14.60Q215.33 15.53 215.22 16.07ZM232.19 9.21L232.19 9.21Q232.65 9.21 232.91 9.46Q233.17 9.72 233.17 10.16L233.17 10.16Q233.17 10.28 233.15 10.39Q233.13 10.51 233.10 10.60L233.10 10.60Q232.92 10.57 232.69 10.55Q232.47 10.53 232.16 10.53L232.16 10.53Q231.56 10.53 230.94 10.63Q230.33 10.74 229.77 10.81L229.77 10.81Q229.45 11.55 229.18 12.24Q228.91 12.94 228.72 13.51Q228.54 14.08 228.43 14.50Q228.33 14.92 228.31 15.13L228.31 15.13Q229.45 14.90 230.60 14.73Q231.76 14.56 233.03 14.48L233.03 14.48Q233.18 14.71 233.29 14.99Q233.39 15.27 233.39 15.60L233.39 15.60Q233.39 15.68 233.39 15.78Q233.39 15.88 233.37 15.97L233.37 15.97Q232.97 15.96 232.54 15.95Q232.11 15.95 231.41 15.95L231.41 15.95Q230.94 15.95 230.53 15.97Q230.12 15.99 229.70 16.03Q229.28 16.07 228.81 16.14Q228.34 16.21 227.75 16.31L227.75 16.31Q227.11 16.06 226.51 15.08L226.51 15.08Q226.74 14.57 227.17 13.54Q227.60 12.52 228.26 10.79L228.26 10.79Q227.63 10.60 227.43 10.09L227.43 10.09Q227.50 10.02 227.84 9.92Q228.17 9.81 228.66 9.70L228.66 9.70Q228.87 9.16 229.02 8.75Q229.17 8.34 229.28 7.99Q229.39 7.63 229.48 7.29Q229.57 6.94 229.66 6.54L229.66 6.54Q229.17 6.51 228.89 6.27Q228.61 6.02 228.61 5.63L228.61 5.63Q228.61 5.52 228.64 5.36Q228.68 5.21 228.72 5.10L228.72 5.10Q229.00 5.14 229.26 5.15Q229.52 5.17 229.94 5.17L229.94 5.17Q230.82 5.17 231.59 5.12Q232.36 5.07 232.98 5.01Q233.60 4.96 234.05 4.91Q234.50 4.86 234.74 4.86L234.74 4.86Q235.06 4.86 235.31 5.19Q235.56 5.53 235.69 6.15L235.69 6.15Q235.26 6.10 234.98 6.09Q234.71 6.08 234.50 6.08L234.50 6.08Q233.73 6.08 233.09 6.15Q232.46 6.23 231.87 6.31L231.87 6.31Q231.78 6.44 231.68 6.64Q231.57 6.83 231.41 7.18Q231.24 7.53 230.99 8.06Q230.75 8.60 230.40 9.39L230.40 9.39Q230.93 9.31 231.40 9.26Q231.87 9.21 232.19 9.21ZM261.91 7.46L261.91 7.46Q261.91 8.33 261.44 9.01Q260.96 9.69 260.13 10.14L260.13 10.14Q260.67 10.50 260.98 11.03Q261.30 11.55 261.30 12.18L261.30 12.18Q261.30 12.94 260.84 13.67Q260.39 14.41 259.63 14.97Q258.87 15.54 257.91 15.89Q256.94 16.24 255.93 16.24L255.93 16.24Q254.84 16.24 254.02 15.83Q253.20 15.41 252.74 14.66L252.74 14.66Q252.88 14.24 253.11 13.62Q253.34 12.99 253.62 12.30Q253.90 11.61 254.19 10.92Q254.48 10.23 254.73 9.69L254.73 9.69Q255.26 8.50 255.68 7.71Q256.10 6.93 256.45 6.47L256.45 6.47Q255.68 6.71 255.05 7.01Q254.42 7.31 254.13 7.59L254.13 7.59Q254.00 7.50 253.87 7.34Q253.74 7.17 253.62 6.96Q253.50 6.76 253.42 6.55Q253.34 6.34 253.33 6.17L253.33 6.17Q253.69 5.92 254.27 5.69Q254.86 5.46 255.54 5.29Q256.23 5.12 256.95 5.03Q257.67 4.93 258.33 4.93L258.33 4.93Q260.01 4.93 260.96 5.60Q261.91 6.27 261.91 7.46ZM256.58 10.81L256.58 10.81Q256.31 10.68 256.09 10.43L256.09 10.43Q255.77 11.14 255.48 11.83Q255.19 12.52 254.97 13.10Q254.74 13.69 254.60 14.13Q254.46 14.56 254.45 14.76L254.45 14.76Q254.65 14.87 254.92 14.92Q255.19 14.98 255.60 14.98L255.60 14.98Q256.55 14.98 257.42 14.71Q258.29 14.45 258.94 13.99Q259.60 13.54 259.99 12.95Q260.39 12.36 260.39 11.72L260.39 11.72Q260.39 10.79 259.59 10.39L259.59 10.39Q258.50 10.84 257.12 10.84L257.12 10.84Q256.93 10.84 256.82 10.84Q256.72 10.84 256.58 10.81ZM259.29 5.95L259.29 5.95Q259 5.95 258.67 5.98Q258.34 6.02 257.98 6.09L257.98 6.09Q258.03 6.15 258.07 6.21Q258.10 6.27 258.13 6.34L258.13 6.34Q258.01 6.51 257.82 6.83Q257.64 7.15 257.42 7.58Q257.19 8.01 256.95 8.53Q256.70 9.04 256.45 9.59L256.45 9.59Q256.69 9.53 257.03 9.50Q257.38 9.46 257.71 9.46L257.71 9.46Q257.89 9.46 258.07 9.48Q258.24 9.49 258.41 9.52L258.41 9.52Q259.08 9.41 259.62 9.19Q260.16 8.97 260.55 8.69Q260.95 8.40 261.16 8.05Q261.37 7.70 261.37 7.31L261.37 7.31Q261.37 6.64 260.83 6.29Q260.30 5.95 259.29 5.95ZM275.79 4.98L275.79 4.98Q276.05 5.10 276.33 5.27Q276.61 5.45 276.85 5.63Q277.09 5.81 277.25 5.98Q277.41 6.16 277.42 6.27L277.42 6.27Q277.19 6.22 276.95 6.20Q276.71 6.17 276.51 6.17L276.51 6.17Q275.88 6.17 275.26 6.48Q274.64 6.79 274.08 7.32Q273.52 7.85 273.04 8.57Q272.57 9.28 272.22 10.09Q271.88 10.91 271.68 11.77Q271.49 12.64 271.49 13.48L271.49 13.48Q271.49 14.57 271.85 15.11Q272.22 15.64 272.92 15.64L272.92 15.64Q273.25 15.64 273.64 15.51Q274.04 15.37 274.44 15.13Q274.85 14.90 275.24 14.56Q275.63 14.22 275.97 13.82L275.97 13.82Q276.46 13.23 276.85 12.48Q277.24 11.73 277.51 10.89Q277.79 10.05 277.93 9.16Q278.08 8.27 278.08 7.42L278.08 7.42Q278.08 7.08 278.07 6.85Q278.05 6.62 278.03 6.46Q278.01 6.30 278.00 6.20Q277.98 6.10 277.97 6.03L277.97 6.03Q278.14 6.12 278.34 6.24Q278.54 6.36 278.72 6.59Q278.89 6.82 279.01 7.20Q279.13 7.57 279.13 8.18L279.13 8.18Q279.13 9.16 278.90 10.10Q278.67 11.05 278.26 11.90Q277.84 12.75 277.28 13.50Q276.72 14.24 276.08 14.80L276.08 14.80Q275.24 15.54 274.29 15.95Q273.34 16.35 272.45 16.35L272.45 16.35Q271.17 16.35 270.49 15.53Q269.81 14.71 269.81 13.12L269.81 13.12Q269.81 12.26 270.00 11.31Q270.19 10.36 270.53 9.44Q270.87 8.51 271.35 7.68Q271.82 6.85 272.39 6.21Q272.96 5.57 273.61 5.19Q274.26 4.82 274.95 4.82L274.95 4.82Q275.17 4.82 275.37 4.85Q275.56 4.89 275.79 4.98ZM292.91 4.98L292.91 4.98Q293.17 5.10 293.45 5.27Q293.73 5.45 293.97 5.63Q294.21 5.81 294.37 5.98Q294.53 6.16 294.55 6.27L294.55 6.27Q294.31 6.22 294.07 6.20Q293.83 6.17 293.64 6.17L293.64 6.17Q293.01 6.17 292.38 6.48Q291.76 6.79 291.20 7.32Q290.64 7.85 290.16 8.57Q289.69 9.28 289.34 10.09Q289.00 10.91 288.81 11.77Q288.61 12.64 288.61 13.48L288.61 13.48Q288.61 14.57 288.97 15.11Q289.34 15.64 290.04 15.64L290.04 15.64Q290.37 15.64 290.77 15.51Q291.16 15.37 291.56 15.13Q291.97 14.90 292.36 14.56Q292.75 14.22 293.09 13.82L293.09 13.82Q293.58 13.23 293.97 12.48Q294.36 11.73 294.64 10.89Q294.91 10.05 295.06 9.16Q295.20 8.27 295.20 7.42L295.20 7.42Q295.20 7.08 295.19 6.85Q295.18 6.62 295.15 6.46Q295.13 6.30 295.12 6.20Q295.11 6.10 295.09 6.03L295.09 6.03Q295.26 6.12 295.46 6.24Q295.67 6.36 295.84 6.59Q296.02 6.82 296.13 7.20Q296.25 7.57 296.25 8.18L296.25 8.18Q296.25 9.16 296.02 10.10Q295.79 11.05 295.38 11.90Q294.97 12.75 294.41 13.50Q293.85 14.24 293.20 14.80L293.20 14.80Q292.36 15.54 291.41 15.95Q290.46 16.35 289.58 16.35L289.58 16.35Q288.29 16.35 287.61 15.53Q286.93 14.71 286.93 13.12L286.93 13.12Q286.93 12.26 287.12 11.31Q287.31 10.36 287.65 9.44Q287.99 8.51 288.47 7.68Q288.95 6.85 289.51 6.21Q290.08 5.57 290.73 5.19Q291.38 4.82 292.07 4.82L292.07 4.82Q292.29 4.82 292.49 4.85Q292.68 4.89 292.91 4.98ZM306.84 10.74L306.84 10.74Q307.71 9.45 308.55 8.37Q309.40 7.28 310.17 6.50Q310.94 5.71 311.58 5.28Q312.23 4.84 312.70 4.84L312.70 4.84Q312.89 4.84 313.10 4.98Q313.32 5.12 313.51 5.35Q313.70 5.57 313.82 5.83Q313.95 6.09 313.95 6.33L313.95 6.33Q313.08 6.61 312.25 7.06Q311.42 7.52 310.65 8.11Q309.89 8.71 309.20 9.44Q308.50 10.16 307.94 10.99L307.94 10.99Q308.17 11.56 308.50 12.21Q308.83 12.87 309.22 13.47Q309.61 14.08 310.06 14.60Q310.51 15.12 310.97 15.43L310.97 15.43Q310.90 15.58 310.73 15.72Q310.56 15.86 310.37 15.98Q310.17 16.10 309.95 16.17Q309.74 16.24 309.55 16.24L309.55 16.24Q309.19 16.24 308.88 15.90Q308.57 15.55 308.26 14.86Q307.94 14.17 307.60 13.14Q307.26 12.11 306.84 10.74ZM304.72 16.31L304.72 16.31Q304.19 16.18 303.84 15.87Q303.49 15.55 303.20 15.08L303.20 15.08Q303.32 14.81 303.50 14.38Q303.67 13.94 303.93 13.31Q304.18 12.67 304.53 11.78Q304.88 10.89 305.34 9.70L305.34 9.70Q305.63 8.95 305.82 8.43Q306.01 7.91 306.14 7.41Q306.28 6.92 306.40 6.31Q306.53 5.71 306.70 4.79L306.70 4.79Q307.29 4.90 307.77 5.31Q308.25 5.71 308.60 6.29L308.60 6.29Q308.45 6.48 308.25 6.88Q308.04 7.28 307.79 7.84Q307.54 8.40 307.23 9.09Q306.92 9.77 306.59 10.54L306.59 10.54Q305.83 12.22 305.40 13.62Q304.96 15.01 304.72 16.31ZM328.76 5.74L328.76 5.74Q328.80 5.98 328.82 6.07Q328.85 6.16 328.85 6.31L328.85 6.31Q328.85 6.78 328.64 7.18Q328.44 7.57 328.09 7.74L328.09 7.74Q327.81 7.36 327.40 7.09Q327.00 6.82 326.51 6.64Q326.03 6.47 325.51 6.38Q325.00 6.30 324.51 6.30L324.51 6.30Q324.02 6.30 323.59 6.38Q323.16 6.45 322.83 6.59Q322.50 6.72 322.31 6.92Q322.13 7.11 322.13 7.36L322.13 7.36Q322.17 7.67 322.50 7.99Q322.84 8.30 323.33 8.60Q323.82 8.90 324.41 9.20Q325.01 9.49 325.58 9.76L325.58 9.76Q326.30 10.09 326.82 10.38Q327.33 10.67 327.67 11.01Q328.01 11.35 328.17 11.79Q328.34 12.22 328.34 12.84L328.34 12.84Q328.34 13.55 328.10 14.18Q327.87 14.80 327.41 15.26Q326.96 15.72 326.31 15.98Q325.67 16.24 324.87 16.24L324.87 16.24Q324.09 16.24 323.18 16.00Q322.27 15.76 321.47 15.35Q320.68 14.94 320.16 14.40Q319.63 13.86 319.63 13.26L319.63 13.26Q319.63 12.98 319.79 12.54Q319.96 12.11 320.38 11.63L320.38 11.63Q320.42 12.05 320.83 12.63Q321.24 13.20 322.07 13.69L322.07 13.69Q322.84 14.14 323.66 14.34Q324.48 14.55 325.19 14.55L325.19 14.55Q325.98 14.55 326.47 14.35Q326.96 14.15 327.24 13.88Q327.52 13.61 327.63 13.33Q327.74 13.05 327.75 12.88L327.75 12.88Q327.74 12.60 327.49 12.34Q327.25 12.08 326.84 11.84Q326.42 11.59 325.88 11.34Q325.33 11.09 324.74 10.84L324.74 10.84Q323.86 10.44 323.22 10.10Q322.59 9.76 322.17 9.40Q321.76 9.04 321.57 8.65Q321.38 8.26 321.38 7.76L321.38 7.76Q321.38 6.97 321.86 6.27Q322.34 5.57 323.23 5.21L323.23 5.21Q323.68 5.01 324.19 4.93Q324.70 4.84 325.19 4.84L325.19 4.84Q326.12 4.84 327.00 5.10Q327.88 5.35 328.76 5.74ZM341.92 14.36L341.92 14.36Q341.92 13.78 342.12 12.85Q342.31 11.93 342.64 10.88L342.64 10.88Q341.71 10.95 340.78 11.06Q339.85 11.17 339.16 11.19L339.16 11.19Q338.53 12.66 338.16 13.89Q337.79 15.13 337.58 16.31L337.58 16.31Q337.05 16.18 336.70 15.87Q336.35 15.55 336.06 15.08L336.06 15.08Q336.17 14.85 336.31 14.50Q336.46 14.15 336.66 13.66Q336.87 13.16 337.13 12.50Q337.39 11.83 337.72 10.95L337.72 10.95Q337.26 10.75 337.11 10.40L337.11 10.40Q337.18 10.35 337.42 10.28Q337.67 10.22 338.03 10.15L338.03 10.15L338.21 9.70Q338.51 8.95 338.69 8.43Q338.88 7.91 339.02 7.41Q339.15 6.92 339.27 6.31Q339.39 5.71 339.56 4.79L339.56 4.79Q340.14 4.90 340.63 5.31Q341.11 5.71 341.46 6.29L341.46 6.29Q341.33 6.45 341.15 6.79Q340.97 7.13 340.75 7.59Q340.54 8.06 340.28 8.64Q340.03 9.23 339.74 9.87L339.74 9.87Q340.61 9.76 341.49 9.66Q342.38 9.56 343.07 9.52L343.07 9.52Q343.32 8.79 343.59 8.10Q343.87 7.41 344.13 6.83Q344.40 6.26 344.64 5.82Q344.89 5.39 345.09 5.18L345.09 5.18Q345.23 5.19 345.46 5.29Q345.69 5.38 345.93 5.50Q346.16 5.63 346.36 5.78Q346.56 5.92 346.63 6.05L346.63 6.05Q346.37 6.29 346.12 6.66Q345.87 7.04 345.62 7.53Q345.38 8.02 345.14 8.60Q344.90 9.17 344.69 9.79L344.69 9.79Q344.97 10.04 344.97 10.42L344.97 10.42Q344.97 10.68 344.86 10.91L344.86 10.91Q344.74 10.88 344.61 10.87Q344.48 10.86 344.34 10.85L344.34 10.85Q344.11 11.61 343.91 12.35Q343.71 13.09 343.58 13.76Q343.45 14.43 343.37 14.99Q343.29 15.55 343.29 15.93L343.29 15.93Q343.29 16.07 343.30 16.16Q343.31 16.24 343.32 16.30L343.32 16.30Q343.01 16.28 342.87 16.19Q342.73 16.10 342.66 16.00Q342.59 15.89 342.54 15.79Q342.48 15.68 342.36 15.62L342.36 15.62Q342.26 15.58 342.17 15.43Q342.09 15.27 342.03 15.08Q341.98 14.88 341.95 14.69Q341.92 14.49 341.92 14.36ZM358.69 9.21L358.69 9.21Q359.16 9.21 359.41 9.46Q359.67 9.72 359.67 10.16L359.67 10.16Q359.67 10.28 359.65 10.39Q359.63 10.51 359.60 10.60L359.60 10.60Q359.42 10.57 359.20 10.55Q358.97 10.53 358.67 10.53L358.67 10.53Q358.06 10.53 357.45 10.63Q356.83 10.74 356.27 10.81L356.27 10.81Q355.95 11.55 355.68 12.24Q355.42 12.94 355.23 13.51Q355.04 14.08 354.93 14.50Q354.83 14.92 354.82 15.13L354.82 15.13Q355.95 14.90 357.10 14.73Q358.26 14.56 359.53 14.48L359.53 14.48Q359.69 14.71 359.79 14.99Q359.90 15.27 359.90 15.60L359.90 15.60Q359.90 15.68 359.90 15.78Q359.90 15.88 359.87 15.97L359.87 15.97Q359.48 15.96 359.04 15.95Q358.61 15.95 357.91 15.95L357.91 15.95Q357.45 15.95 357.03 15.97Q356.62 15.99 356.20 16.03Q355.78 16.07 355.31 16.14Q354.84 16.21 354.26 16.31L354.26 16.31Q353.61 16.06 353.01 15.08L353.01 15.08Q353.25 14.57 353.67 13.54Q354.10 12.52 354.76 10.79L354.76 10.79Q354.13 10.60 353.93 10.09L353.93 10.09Q354.00 10.02 354.34 9.92Q354.68 9.81 355.17 9.70L355.17 9.70Q355.38 9.16 355.52 8.75Q355.67 8.34 355.78 7.99Q355.89 7.63 355.98 7.29Q356.08 6.94 356.16 6.54L356.16 6.54Q355.67 6.51 355.39 6.27Q355.11 6.02 355.11 5.63L355.11 5.63Q355.11 5.52 355.14 5.36Q355.18 5.21 355.22 5.10L355.22 5.10Q355.50 5.14 355.76 5.15Q356.02 5.17 356.44 5.17L356.44 5.17Q357.32 5.17 358.09 5.12Q358.86 5.07 359.48 5.01Q360.11 4.96 360.56 4.91Q361.00 4.86 361.24 4.86L361.24 4.86Q361.56 4.86 361.82 5.19Q362.07 5.53 362.19 6.15L362.19 6.15Q361.76 6.10 361.49 6.09Q361.21 6.08 361.00 6.08L361.00 6.08Q360.23 6.08 359.60 6.15Q358.96 6.23 358.37 6.31L358.37 6.31Q358.29 6.44 358.18 6.64Q358.08 6.83 357.91 7.18Q357.74 7.53 357.50 8.06Q357.25 8.60 356.90 9.39L356.90 9.39Q357.43 9.31 357.90 9.26Q358.37 9.21 358.69 9.21ZM373.65 14.38L373.65 14.38Q374.00 14.98 374.00 15.54L374.00 15.54Q374.00 15.67 373.97 15.77Q373.95 15.88 373.93 15.99L373.93 15.99Q373.69 15.96 373.43 15.95Q373.17 15.93 372.89 15.93L372.89 15.93Q372.55 15.93 372.21 15.95Q371.87 15.97 371.45 16.02Q371.03 16.06 370.51 16.13Q369.99 16.20 369.31 16.31L369.31 16.31Q368.98 16.20 368.66 15.87Q368.34 15.54 368.06 15.08L368.06 15.08Q368.20 14.77 368.41 14.31Q368.62 13.86 368.90 13.21Q369.18 12.56 369.52 11.68Q369.87 10.81 370.26 9.66L370.26 9.66Q370.51 8.90 370.69 8.33Q370.87 7.76 371.02 7.22Q371.17 6.68 371.31 6.09Q371.45 5.50 371.62 4.73L371.62 4.73Q372.18 4.84 372.59 5.14Q373.00 5.45 373.38 6.01L373.38 6.01Q373.27 6.19 373.09 6.59Q372.90 7 372.66 7.58Q372.41 8.16 372.12 8.90Q371.83 9.63 371.50 10.47L371.50 10.47Q371.20 11.30 370.90 12.03Q370.61 12.75 370.38 13.34Q370.15 13.93 370.01 14.35Q369.87 14.77 369.87 14.98L369.87 14.98Q370.09 14.97 370.27 14.95Q370.45 14.94 370.65 14.90Q370.85 14.87 371.08 14.82Q371.31 14.77 371.63 14.69L371.63 14.69Q371.91 14.62 372.15 14.57Q372.39 14.52 372.62 14.48Q372.85 14.45 373.09 14.43Q373.34 14.41 373.65 14.38ZM388.16 9.34L388.16 9.34Q388.61 9.34 388.87 9.59Q389.13 9.84 389.13 10.29L389.13 10.29Q389.13 10.40 389.12 10.52Q389.10 10.64 389.06 10.72L389.06 10.72Q388.88 10.70 388.65 10.68Q388.43 10.65 388.12 10.65L388.12 10.65Q387.49 10.65 386.86 10.77Q386.23 10.88 385.66 10.95L385.66 10.95Q385.03 12.43 384.62 13.73Q384.22 15.04 383.99 16.31L383.99 16.31Q383.52 16.20 383.15 15.90Q382.79 15.61 382.47 15.08L382.47 15.08Q382.56 14.85 382.70 14.54Q382.84 14.22 383.04 13.74Q383.24 13.26 383.51 12.56Q383.78 11.87 384.16 10.91L384.16 10.91Q383.57 10.71 383.39 10.22L383.39 10.22Q383.46 10.15 383.78 10.06Q384.10 9.97 384.57 9.86L384.57 9.86Q384.78 9.31 384.93 8.88Q385.08 8.46 385.21 8.07Q385.34 7.69 385.44 7.32Q385.55 6.94 385.63 6.52L385.63 6.52L385.56 6.52Q385.03 6.52 384.70 6.27Q384.37 6.02 384.37 5.61L384.37 5.61Q384.37 5.50 384.40 5.35Q384.44 5.19 384.50 5.08L384.50 5.08Q384.76 5.12 385.02 5.14Q385.28 5.15 385.70 5.15L385.70 5.15Q386.58 5.15 387.35 5.10Q388.12 5.05 388.74 5.00Q389.37 4.94 389.82 4.89Q390.26 4.84 390.50 4.84L390.50 4.84Q390.82 4.84 391.08 5.18Q391.33 5.52 391.47 6.13L391.47 6.13Q391.02 6.09 390.75 6.08Q390.47 6.06 390.26 6.06L390.26 6.06Q389.55 6.06 388.95 6.13Q388.36 6.19 387.83 6.27L387.83 6.27Q387.74 6.40 387.64 6.59Q387.53 6.79 387.37 7.15Q387.20 7.50 386.94 8.08Q386.68 8.65 386.29 9.53L386.29 9.53Q386.83 9.45 387.33 9.39Q387.83 9.34 388.16 9.34Z"></path></g></svg>